<?xml version="1.0" encoding="UTF-8"?>
<!DOCTYPE svg PUBLIC "-//W3C//DTD SVG 1.1//EN" "http://www.w3.org/Graphics/SVG/1.1/DTD/svg11.dtd">
<!-- Creator: CorelDRAW X8 -->
<svg xmlns="http://www.w3.org/2000/svg" xml:space="preserve" width="210mm" height="297mm" version="1.1" style="shape-rendering:geometricPrecision; text-rendering:geometricPrecision; image-rendering:optimizeQuality; fill-rule:evenodd; clip-rule:evenodd"
viewBox="0 0 21000 29700"
 xmlns:xlink="http://www.w3.org/1999/xlink">
 <defs>
  <style type="text/css">
   <![CDATA[
    .str0 {stroke:#FFC56E;stroke-width:300}
    .fil0 {fill:#5F1530}
    .fil1 {fill:#FFC56E}
    .fil2 {fill:#FFC56E}
   ]]>
  </style>
 </defs>
 <g id="Camada_x0020_1">
  <metadata id="CorelCorpID_0Corel-Layer"/>
  <g id="_1966792998800">
   <g>
    <path class="fil0" d="M15235 8790c209,85 49,363 -109,289 -205,-97 -60,-358 109,-289zm981 926c-169,249 -359,75 -310,-78 29,-89 118,-130 185,-106 101,36 111,129 125,184zm988 -1074c189,67 78,350 -89,292 -195,-68 -114,-365 89,-292zm-1131 -957c101,26 130,137 107,202 -25,70 -115,124 -181,103 -191,-62 -121,-354 74,-305zm-1982 1956c-17,54 -93,133 -146,178 95,77 319,249 369,335 183,149 770,752 910,816 547,-515 1111,-977 1679,-1448 282,-234 553,-479 835,-711 158,-129 764,-612 805,-768 -67,-137 -1003,-976 -1203,-1184 -95,-99 -208,-209 -311,-301 -130,-116 -211,-106 -331,-99 -307,17 -346,193 -565,467 -697,874 -1338,1907 -2042,2715zm223 513c-50,-86 -274,-258 -369,-335 53,-45 129,-124 146,-178l-157 182 380 331z"/>
    <path class="fil0" d="M11783 11970l-1875 1887 845 750c272,256 556,506 849,742 88,-49 1610,-1839 1750,-2037 -494,-454 -1049,-920 -1569,-1342z"/>
    <polygon class="fil0" points="11877,11877 12795,12643 13434,13215 13952,12576 12631,11403 12570,11358 12524,11319 12478,11279 "/>
    <path class="fil0" d="M12575 11185l1466 1283 513 -666c-229,-206 -455,-410 -679,-618 -195,-181 -477,-453 -687,-607l-613 608z"/>
    <polygon class="fil0" points="13289,10477 13672,10819 14632,11693 15124,11074 13847,9923 "/>
   </g>
   <path class="fil0" d="M10899 16996c388,-349 566,-872 628,-1343 32,-244 53,-139 -235,-390 -455,-396 -908,-839 -1363,-1214 -130,-107 -112,-104 -428,-10 -279,82 -570,183 -848,394 -341,259 -463,514 -663,860 -478,826 -806,994 -1527,1326 -628,288 -1101,379 -1700,578 -590,196 -1095,335 -1694,669 -1488,832 -1675,2173 -1370,3279 328,1191 1406,2349 2726,3075 1266,697 2338,739 3463,-293 522,-478 788,-1278 890,-1796 61,-311 124,-581 166,-889 101,-741 236,-2015 504,-2646 152,-358 333,-607 633,-911 263,-266 548,-446 818,-689z"/>
  </g>
  <path class="fil1 str0" d="M10928 16982c-269,242 -553,422 -816,688 -300,303 -481,551 -632,909 -267,630 -403,1902 -504,2641 -42,307 -104,577 -165,888 -101,517 -368,1316 -888,1793 -1124,1030 -2194,988 -3458,293 -1317,-726 -2393,-1882 -2721,-3070 -305,-1105 -118,-2444 1368,-3274 597,-334 1102,-472 1691,-668 598,-199 1070,-289 1697,-577 719,-331 1047,-499 1524,-1323 200,-346 322,-600 663,-859 277,-211 568,-311 846,-394 315,-93 297,-97 427,10 454,375 907,817 1360,1213 288,250 268,145 235,389 -62,470 -240,992 -627,1341zm888 -5024c519,422 1073,886 1566,1340 -139,198 -1659,1985 -1747,2034 -292,-236 -575,-486 -847,-741l-844 -749 1872 -1884zm694 -689l46 39 45 40 61 45 1320 1170 -517 638 -639 -571 -916 -765 600 -596zm708 -701c211,153 492,425 686,605 224,208 450,412 678,618l-512 665 -1463 -1281 611 -607zm659 -654l1275 1149 -492 619 -958 -873 -382 -341 557 -554zm465 232l-379 -331 157 -181c703,-807 1342,-1839 2039,-2711 218,-274 257,-449 564,-467 119,-6 200,-16 330,100 103,91 216,201 311,300 199,208 1133,1046 1200,1182 -40,155 -646,638 -803,767 -282,231 -553,476 -834,710 -567,470 -1130,931 -1676,1445 -140,-64 -725,-666 -909,-814zm-2531 1634l-84 -18c-101,122 54,61 -136,246l-673 674c-301,305 -608,601 -904,907 -31,32 -204,215 -218,225 -23,15 -193,54 -242,68 -536,154 -1000,377 -1365,875 -235,320 -363,682 -630,1008 -247,300 -649,524 -924,645 -778,342 -1113,421 -1894,661 -1173,360 -2880,944 -3193,2616 -93,498 -65,958 63,1436 241,893 844,1696 1551,2317 604,531 1357,1001 2021,1213 710,226 1265,241 1928,-49 668,-293 1292,-914 1573,-1645 260,-672 354,-1334 452,-1975 99,-639 144,-1311 320,-1956 247,-901 636,-1210 1399,-1829 581,-473 758,-989 866,-1688 20,-131 45,-132 154,-246 310,-328 1022,-1157 1334,-1544 67,-84 138,-174 210,-257 93,-107 198,-16 149,-161 -1,-2 -3,-7 -4,-11 95,-128 198,-248 297,-376 284,-365 209,-204 316,-307l-16 -74 495 -631c49,-51 46,-17 86,-48 57,-46 24,-41 25,-46 1,-4 0,-8 1,-11 0,-4 0,-8 0,-11 27,-149 588,-750 714,-864 728,-656 1527,-1309 2280,-1953 241,-206 549,-436 762,-662 139,-148 221,-263 106,-414l-1536 -1502c-125,-110 -239,-90 -412,-59 -141,26 -265,50 -393,204 -115,139 -234,289 -336,431 -414,574 -862,1135 -1266,1717 -205,296 -441,580 -668,864 -237,294 -492,539 -756,800 -56,56 -43,30 -91,58 -61,35 -19,31 -60,91 -22,32 -150,149 -185,182 -127,118 -250,262 -379,371 -31,26 -75,52 -94,71 -44,47 -21,50 -74,104 -61,64 -127,123 -189,184 -124,123 -263,245 -380,369z"/>
  <path class="fil2 str0" d="M4316 19969l2081 1796 -223 259 -2074 -1806 216 -249zm-67 -114l-347 418c66,122 1926,1688 2189,1915 27,23 45,29 70,35 115,-100 377,-385 436,-506 -38,-82 -1878,-1643 -2076,-1810 -108,-92 -139,-206 -272,-52z"/>
  <path class="fil2 str0" d="M8266 17282c394,196 65,790 -311,599 -384,-195 -60,-785 311,-599zm67 -62c-177,-99 -436,-66 -568,153 -101,168 -89,449 123,571 177,102 437,69 575,-155 102,-165 85,-449 -130,-569z"/>
  <path class="fil2 str0" d="M16164 9642c-14,-55 -23,-148 -124,-184 -67,-24 -157,17 -185,105 -49,153 141,328 309,79z"/>
  <path class="fil2 str0" d="M15332 8834c-168,-69 -313,192 -108,289 157,74 317,-204 108,-289z"/>
  <path class="fil2 str0" d="M16169 7742c-194,-49 -264,242 -73,304 66,22 156,-32 181,-103 23,-64 -7,-175 -108,-201z"/>
  <path class="fil2 str0" d="M17138 8559c-202,-72 -283,224 -88,292 167,58 277,-225 88,-292z"/>
 </g>
</svg>
